<?xml version="1.0" encoding="UTF-8"?>
<svg id="Layer_1" data-name="Layer 1" xmlns="http://www.w3.org/2000/svg" viewBox="0 0 1080 1080">
  <defs>
    <style>
      .cls-1 {
        fill: #166734;
        stroke-width: 0px;
      }
    </style>
  </defs>
  <path class="cls-1" d="m825.04,533.07h220.87c-.32-24.64-2.39-49-6.21-73h-28.28c-6.11-36.39-16.45-71.89-30.94-106.16-24.08-56.93-58.55-108.06-102.44-151.95-16.65-16.65-34.34-31.95-53-45.83-30.52-22.72-63.62-41.67-98.95-56.61-6.97-2.94-13.98-5.72-21.05-8.31-52.73-19.43-108.14-29.27-165.04-29.27s-108.17,9.12-159.12,27.13c-9.07,3.2-18.06,6.69-26.97,10.45-33.06,13.98-64.16,31.47-93.03,52.28-20.84,15.01-40.52,31.76-58.92,50.16-43.89,43.89-78.36,95.02-102.44,151.95-14.49,34.27-24.83,69.77-30.94,106.16h-28.28c-3.82,24-5.89,48.36-6.21,73h226.79v23.11H34.3c.76,24.65,3.28,49.01,7.55,73h28.37c6.26,33.16,16.04,65.55,29.3,96.91,24.08,56.93,58.55,108.06,102.44,151.95,18.4,18.4,38.08,35.15,58.92,50.16,28.87,20.81,59.97,38.3,93.03,52.28,8.91,3.76,17.9,7.25,26.97,10.45,50.95,18.01,104.35,27.13,159.12,27.13s112.31-9.84,165.04-29.27c7.07-2.59,14.08-5.37,21.05-8.31,35.33-14.94,68.43-33.89,98.95-56.61,18.66-13.88,36.35-29.18,53-45.83,43.89-43.89,78.36-95.02,102.44-151.95,13.26-31.36,23.04-63.75,29.3-96.91h28.37c4.27-23.99,6.79-48.35,7.55-73h-220.66v-23.11Zm110.12,96.11c-17.26,76.54-56.25,144.93-110.12,198.34-34.5,34.21-75.1,62.27-120,82.38-50.43,22.59-106.3,35.16-165.04,35.16s-110.25-11.61-159.12-32.57c-44.7-19.16-85.27-46.15-120-79.22-56.94-54.21-98.16-124.78-116.04-204.09h116.04v164.06c6.17,6.79,12.61,13.38,19.31,19.75,29.85,28.43,63.68,51.54,100.69,68.82V198.19c-37.04,17.29-70.86,40.41-100.69,68.81-6.7,6.38-13.14,12.97-19.31,19.75v173.32h-118.02c16.69-83.07,58.88-157.04,118.02-213.34,34.73-33.08,75.31-60.06,120-79.22,48.87-20.96,102.66-32.57,159.12-32.57s114.6,12.57,165.04,35.16c44.9,20.11,85.5,48.17,120,82.37,56.04,55.56,95.98,127.32,112.1,207.6h-112.1v-166.65c-6.28-7.24-12.85-14.27-19.71-21.07-29.54-29.27-63.23-53.23-100.29-71.34v677.98c37.07-18.11,70.75-42.07,100.28-71.35,6.86-6.8,13.44-13.83,19.72-21.08v-157.38h110.12Z"/>
  <rect class="cls-1" x="397.18" y="460.07" width="291.57" height="169.11"/>
</svg>